<?xml version="1.0" encoding="UTF-8"?>
<svg width="22px" height="22px" viewBox="0 0 22 22" version="1.1" xmlns="http://www.w3.org/2000/svg" xmlns:xlink="http://www.w3.org/1999/xlink">
    <g id="Icon-/-01_Nav1-/-Insight" stroke="none" stroke-width="1" fill="none" fill-rule="evenodd">
        <g id="monitor">
            <rect id="transparent-bg" x="0" y="0" width="22" height="22"></rect>
            <path d="M18.5789474,3.42105263 C17,1.84210526 14.7894737,1 12.5789474,1 L12.5789474,6.26315789 C12.5789474,8.05263158 13.9473684,9.42105263 15.7368421,9.42105263 L21,9.42105263 C21,7.21052632 20.1578947,5 18.5789474,3.42105263 Z" id="Path" fill="#C5CAD8" fill-rule="nonzero"></path>
            <circle id="Oval" fill="#9BA3AF" fill-rule="nonzero" cx="10.4736842" cy="11.5263158" r="2.10526316"></circle>
            <path d="M10.4736842,21 C5.21052632,21 1,16.7894737 1,11.5263158 C1,7.21052632 3.84210526,3.52631579 8.05263158,2.36842105 C8.89473684,2.15789474 9.73684211,2.68421053 9.94736842,3.52631579 C10.1578947,4.36842105 9.63157895,5.21052632 8.78947368,5.42105263 C6.05263158,6.15789474 4.15789474,8.68421053 4.15789474,11.5263158 C4.15789474,15 7,17.8421053 10.4736842,17.8421053 C13.3157895,17.8421053 15.8421053,15.9473684 16.5789474,13.2105263 C16.7894737,12.3684211 17.6315789,11.8421053 18.4736842,12.0526316 C19.3157895,12.2631579 19.8421053,13.1052632 19.6315789,13.9473684 C18.4736842,18.1578947 14.7894737,21 10.4736842,21 Z" id="Path" fill="#C5CAD8" fill-rule="nonzero" opacity="0.66"></path>
        </g>
    </g>
</svg>
